<?xml version="1.0" encoding="UTF-8" standalone="no"?>
<!-- Created with Inkscape (http://www.inkscape.org/) -->

<svg
   version="1.1"
   id="svg9"
   width="500"
   height="500"
   viewBox="0 0 500 500"
   sodipodi:docname="agendamentos.svg"
   inkscape:version="1.2 (1:1.2.1+202207142221+cd75a1ee6d)"
   xmlns:inkscape="http://www.inkscape.org/namespaces/inkscape"
   xmlns:sodipodi="http://sodipodi.sourceforge.net/DTD/sodipodi-0.dtd"
   xmlns="http://www.w3.org/2000/svg"
   xmlns:svg="http://www.w3.org/2000/svg">
  <defs
     id="defs13" />
  <sodipodi:namedview
     id="namedview11"
     pagecolor="#ffffff"
     bordercolor="#000000"
     borderopacity="0.25"
     inkscape:showpageshadow="2"
     inkscape:pageopacity="0.0"
     inkscape:pagecheckerboard="0"
     inkscape:deskcolor="#d1d1d1"
     showgrid="false"
     inkscape:zoom="0.90792508"
     inkscape:cx="100.77924"
     inkscape:cy="301.23631"
     inkscape:window-width="1280"
     inkscape:window-height="656"
     inkscape:window-x="0"
     inkscape:window-y="0"
     inkscape:window-maximized="1"
     inkscape:current-layer="g17">
    <inkscape:page
       x="0"
       y="0"
       id="page15"
       width="500"
       height="500" />
  </sodipodi:namedview>
  <g
     id="g17"
     inkscape:groupmode="layer"
     inkscape:label="Page 1"
     transform="matrix(1.3333333,0,0,-1.3333333,0,666.66667)">
    <path
       d="m 325.99203,139.62986 c 0,-5.2504 -21.33557,-9.50736 -47.65564,-9.50736 -26.31832,0 -47.65478,4.25696 -47.65478,9.50736 0,5.25031 21.33646,9.50689 47.65478,9.50689 26.32007,0 47.65564,-4.25658 47.65564,-9.50689"
       style="fill:#def2fc;fill-opacity:1;fill-rule:nonzero;stroke:none;stroke-width:0.0943566"
       id="path25" />
    <path
       d="M 162.50635,316.16684 H 126.29448 V 346.482 h 36.21187 v -30.31516"
       style="fill:#f03a69;fill-opacity:1;fill-rule:nonzero;stroke:none;stroke-width:0.0943566"
       id="path41" />
    <path
       d="m 253.40404,443.30955 c -4.56188,0 -8.25898,4.17546 -8.25898,9.32759 0,5.15213 3.6971,9.32759 8.25898,9.32759 4.56188,0 8.25987,-4.17546 8.25987,-9.32759 0,-5.15213 -3.69799,-9.32759 -8.25987,-9.32759 z m -142.9208,0 c -4.56188,0 -8.25898,4.17546 -8.25898,9.32759 0,5.15213 3.6971,9.32759 8.25898,9.32759 4.5619,0 8.25901,-4.17546 8.25901,-9.32759 0,-5.15213 -3.69711,-9.32759 -8.25901,-9.32759 z m 203.44261,28.77892 H 49.961436 c -8.322294,0 -15.068701,-7.61888 -15.068701,-17.01765 V 429.51973 H 328.99482 v 25.55109 c 0,9.39877 -6.74694,17.01765 -15.06897,17.01765"
       style="fill:#f8a33c;fill-opacity:1;fill-rule:nonzero;stroke:none;stroke-width:0.0943566"
       id="path43" />
    <path
       d="M 51.778909,190.04594 H 312.10838 V 387.94069 H 51.778909 Z M 313.20312,188.81055 H 50.685051 V 389.17608 H 313.20312 V 188.81055"
       style="fill:#dededc;fill-opacity:1;fill-rule:nonzero;stroke:none;stroke-width:0.0943566"
       id="path45" />
    <path
       d="M 312.6553,346.482 H 51.231981 v 1.21633 H 312.6553 V 346.482"
       style="fill:#dededc;fill-opacity:1;fill-rule:nonzero;stroke:none;stroke-width:0.0943566"
       id="path47" />
    <path
       d="M 51.231981,314.94951 H 312.6553 v 1.21739 H 51.231981 Z"
       style="fill:#dededc;fill-opacity:1;fill-rule:nonzero;stroke:none;stroke-width:0.0943566"
       id="path49" />
    <path
       d="M 51.231981,283.41703 H 312.6553 v 1.21622 H 51.231981 Z"
       style="fill:#dededc;fill-opacity:1;fill-rule:nonzero;stroke:none;stroke-width:0.0943566"
       id="path51" />
    <path
       d="M 51.231981,251.88455 H 312.6553 v 1.21621 H 51.231981 Z"
       style="fill:#dededc;fill-opacity:1;fill-rule:nonzero;stroke:none;stroke-width:0.0943566"
       id="path53" />
    <path
       d="M 51.231981,220.35207 H 312.6553 v 1.21621 H 51.231981 Z"
       style="fill:#dededc;fill-opacity:1;fill-rule:nonzero;stroke:none;stroke-width:0.0943566"
       id="path55" />
    <path
       d="m 89.021596,189.42825 h -1.062771 v 199.13114 h 1.062771 V 189.42825"
       style="fill:#dededc;fill-opacity:1;fill-rule:nonzero;stroke:none;stroke-width:0.0943566"
       id="path57" />
    <path
       d="m 126.29448,189.42825 h -1.06189 v 199.13114 h 1.06189 V 189.42825"
       style="fill:#dededc;fill-opacity:1;fill-rule:nonzero;stroke:none;stroke-width:0.0943566"
       id="path59" />
    <path
       d="m 163.56914,189.42825 h -1.06279 v 199.13114 h 1.06279 V 189.42825"
       style="fill:#dededc;fill-opacity:1;fill-rule:nonzero;stroke:none;stroke-width:0.0943566"
       id="path61" />
    <path
       d="m 199.77922,189.42825 h 1.06269 v 199.13114 h -1.06269 z"
       style="fill:#dededc;fill-opacity:1;fill-rule:nonzero;stroke:none;stroke-width:0.0943566"
       id="path63" />
    <path
       d="m 237.05299,189.42825 h 1.06303 v 199.13114 h -1.06303 z"
       style="fill:#dededc;fill-opacity:1;fill-rule:nonzero;stroke:none;stroke-width:0.0943566"
       id="path65" />
    <path
       d="m 274.32763,189.42825 h 1.06304 v 199.13114 h -1.06304 z"
       style="fill:#dededc;fill-opacity:1;fill-rule:nonzero;stroke:none;stroke-width:0.0943566"
       id="path67" />
    <g
       id="g69"
       transform="matrix(0.88787219,0,0,1.0027502,-43.104439,87.234966)">
      <text
         xml:space="preserve"
         transform="matrix(1,0,0,-1,122.306,239.021)"
         style="font-variant:normal;font-weight:normal;font-size:12.1335px;font-family:Montserrat;-inkscape-font-specification:Montserrat-Regular;writing-mode:lr-tb;fill:#f03a69;fill-opacity:1;fill-rule:nonzero;stroke:none"
         id="text73"><tspan
           x="0 6.8432941"
           y="0"
           sodipodi:role="line"
           id="tspan71">31</tspan></text>
    </g>
    <g
       id="g75"
       transform="matrix(0.88787219,0,0,1.0027502,-43.104439,87.234966)">
      <text
         xml:space="preserve"
         transform="matrix(1,0,0,-1,163.383,239.021)"
         style="font-variant:normal;font-weight:normal;font-size:12.1335px;font-family:Montserrat;-inkscape-font-specification:Montserrat-Regular;writing-mode:lr-tb;fill:#bab9b8;fill-opacity:1;fill-rule:nonzero;stroke:none"
         id="text79"><tspan
           x="0 8.0078163"
           y="0"
           sodipodi:role="line"
           id="tspan77">01</tspan></text>
    </g>
    <g
       id="g81"
       transform="matrix(0.88787219,0,0,1.0027502,-43.104439,87.234966)">
      <text
         xml:space="preserve"
         transform="matrix(1,0,0,-1,203.988,239.021)"
         style="font-variant:normal;font-weight:normal;font-size:12.1335px;font-family:Montserrat;-inkscape-font-specification:Montserrat-Regular;writing-mode:lr-tb;fill:#ffffff;fill-opacity:1;fill-rule:nonzero;stroke:none"
         id="text85"><tspan
           x="0 8.0078163"
           y="0"
           sodipodi:role="line"
           id="tspan83">02</tspan></text>
    </g>
    <g
       id="g87"
       transform="matrix(0.88787219,0,0,1.0027502,-43.104439,87.234966)">
      <text
         xml:space="preserve"
         transform="matrix(1,0,0,-1,245.922,239.021)"
         style="font-variant:normal;font-weight:normal;font-size:12.1335px;font-family:Montserrat;-inkscape-font-specification:Montserrat-Regular;writing-mode:lr-tb;fill:#bab9b8;fill-opacity:1;fill-rule:nonzero;stroke:none"
         id="text91"><tspan
           x="0 7.9111366 41.211285 49.24366 83.647354 91.679726 125.24754 133.27992"
           y="0"
           sodipodi:role="line"
           id="tspan89">03040506</tspan></text>
    </g>
    <g
       id="g93"
       transform="matrix(0.88787219,0,0,1.0027502,-43.104439,87.234966)">
      <text
         xml:space="preserve"
         transform="matrix(1,0,0,-1,120.377,207.475)"
         style="font-variant:normal;font-weight:normal;font-size:12.1335px;font-family:Montserrat;-inkscape-font-specification:Montserrat-Regular;writing-mode:lr-tb;fill:#f03a69;fill-opacity:1;fill-rule:nonzero;stroke:none"
         id="text97"><tspan
           x="0 7.9350624"
           y="0"
           sodipodi:role="line"
           id="tspan95">07</tspan></text>
    </g>
    <g
       id="g99"
       transform="matrix(0.88787219,0,0,1.0027502,-43.104439,87.234966)">
      <text
         xml:space="preserve"
         transform="matrix(1,0,0,-1,161.69,207.475)"
         style="font-variant:normal;font-weight:normal;font-size:12.1335px;font-family:Montserrat;-inkscape-font-specification:Montserrat-Regular;writing-mode:lr-tb;fill:#bab9b8;fill-opacity:1;fill-rule:nonzero;stroke:none"
         id="text103"><tspan
           x="0 8.0323772 42.037239 50.069614 85.403458 89.783653 129.08977 133.46996 169.69513 174.07532 211.58058 215.96077"
           y="0"
           sodipodi:role="line"
           id="tspan101">080910111213</tspan></text>
    </g>
    <g
       id="g105"
       transform="matrix(0.88787219,0,0,1.0027502,-43.104439,87.234966)">
      <text
         xml:space="preserve"
         transform="matrix(1,0,0,-1,121.718,176.332)"
         style="font-variant:normal;font-weight:normal;font-size:12.1335px;font-family:Montserrat;-inkscape-font-specification:Montserrat-Regular;writing-mode:lr-tb;fill:#f03a69;fill-opacity:1;fill-rule:nonzero;stroke:none"
         id="text109"><tspan
           x="0 4.3801937"
           y="0"
           sodipodi:role="line"
           id="tspan107">14</tspan></text>
    </g>
    <g
       id="g111"
       transform="matrix(0.88787219,0,0,1.0027502,-43.104439,87.234966)">
      <text
         xml:space="preserve"
         transform="matrix(1,0,0,-1,163.953,176.332)"
         style="font-variant:normal;font-weight:normal;font-size:12.1335px;font-family:Montserrat;-inkscape-font-specification:Montserrat-Regular;writing-mode:lr-tb;fill:#bab9b8;fill-opacity:1;fill-rule:nonzero;stroke:none"
         id="text115"><tspan
           x="0 4.3801937 41.600311 45.980503 83.583435 87.963631 125.14613 129.52632 167.18277 171.56296 207.49013 214.33292"
           y="0"
           sodipodi:role="line"
           id="tspan113">151617181920</tspan></text>
    </g>
    <g
       id="g117"
       transform="matrix(0.88787219,0,0,1.0027502,-43.104439,87.234966)">
      <text
         xml:space="preserve"
         transform="matrix(1,0,0,-1,122.282,144.784)"
         style="font-variant:normal;font-weight:normal;font-size:12.1335px;font-family:Montserrat;-inkscape-font-specification:Montserrat-Regular;writing-mode:lr-tb;fill:#f03a69;fill-opacity:1;fill-rule:nonzero;stroke:none"
         id="text121"><tspan
           x="0 6.8918281"
           y="0"
           sodipodi:role="line"
           id="tspan119">21</tspan></text>
    </g>
    <g
       id="g123"
       transform="matrix(0.88787219,0,0,1.0027502,-43.104439,87.234966)">
      <text
         xml:space="preserve"
         transform="matrix(1,0,0,-1,162.685,144.784)"
         style="font-variant:normal;font-weight:normal;font-size:12.1335px;font-family:Montserrat;-inkscape-font-specification:Montserrat-Regular;writing-mode:lr-tb;fill:#bab9b8;fill-opacity:1;fill-rule:nonzero;stroke:none"
         id="text127"><tspan
           x="0 6.8918281 41.884964 48.776791 83.297325 89.909637 125.59426 132.48608 167.21872 174.06149 209.20071 216.0435"
           y="0"
           sodipodi:role="line"
           id="tspan125">222324252627</tspan></text>
    </g>
    <g
       id="g129"
       transform="matrix(0.88787219,0,0,1.0027502,-43.104439,87.234966)">
      <text
         xml:space="preserve"
         transform="matrix(1,0,0,-1,120.602,113.895)"
         style="font-variant:normal;font-weight:normal;font-size:12.1335px;font-family:Montserrat;-inkscape-font-specification:Montserrat-Regular;writing-mode:lr-tb;fill:#f03a69;fill-opacity:1;fill-rule:nonzero;stroke:none"
         id="text133"><tspan
           x="0 6.8918281"
           y="0"
           sodipodi:role="line"
           id="tspan131">28</tspan></text>
    </g>
    <g
       id="g135"
       transform="matrix(0.88787219,0,0,1.0027502,-43.104439,87.234966)">
      <text
         xml:space="preserve"
         transform="matrix(1,0,0,-1,162.436,113.895)"
         style="font-variant:normal;font-weight:normal;font-size:12.1335px;font-family:Montserrat;-inkscape-font-specification:Montserrat-Regular;writing-mode:lr-tb;fill:#bab9b8;fill-opacity:1;fill-rule:nonzero;stroke:none"
         id="text139"><tspan
           x="0 6.8918281 41.564274 48.40757 85.251427 92.094719"
           y="0"
           sodipodi:role="line"
           id="tspan137">293031</tspan></text>
    </g>
    <g
       id="g141"
       transform="matrix(0.88787219,0,0,1.0027502,-43.104439,87.234966)">
      <text
         xml:space="preserve"
         transform="matrix(1,0,0,-1,288.965,113.895)"
         style="font-variant:normal;font-weight:normal;font-size:12.1335px;font-family:Montserrat;-inkscape-font-specification:Montserrat-Regular;writing-mode:lr-tb;fill:#ee2467;fill-opacity:1;fill-rule:nonzero;stroke:none"
         id="text145"><tspan
           x="0 8.0078163 40.604343 48.61216 82.538277 90.449409"
           y="0"
           sodipodi:role="line"
           id="tspan143">010203</tspan></text>
    </g>
    <g
       id="g147"
       transform="matrix(0.88787219,0,0,1.0027502,-43.104439,87.234966)">
      <text
         xml:space="preserve"
         transform="matrix(1,0,0,-1,119.176,273.804)"
         style="font-variant:normal;font-weight:600;font-size:13.3468px;font-family:Montserrat;-inkscape-font-specification:Montserrat-SemiBold;writing-mode:lr-tb;fill:#f03a69;fill-opacity:1;fill-rule:nonzero;stroke:none"
         id="text151"><tspan
           x="0 8.3951368"
           y="0"
           sodipodi:role="line"
           id="tspan149">Su</tspan></text>
    </g>
    <g
       id="g159"
       transform="matrix(0.88787219,0,0,1.0027502,-43.104439,87.234966)">
      <text
         xml:space="preserve"
         transform="matrix(1,0,0,-1,158.899,273.804)"
         style="font-variant:normal;font-weight:600;font-size:13.3468px;font-family:Montserrat;-inkscape-font-specification:Montserrat-SemiBold;writing-mode:lr-tb;fill:#3a97c5;fill-opacity:1;fill-rule:nonzero;stroke:none"
         id="text163"><tspan
           x="0 12.746194 44.063393 51.924728 82.982201 97.517395 127.67128 135.70547 171.13335 179.50153 211.73338 220.12851"
           y="0"
           sodipodi:role="line"
           id="tspan161">MoTuWeThFrSa</tspan></text>
    </g>
    <path
       d="m 110.6626,445.33712 v 0 c -3.11021,0 -5.65574,2.87389 -5.65574,6.38752 v 34.97993 c 0,3.51263 2.54553,6.38752 5.65574,6.38752 3.11021,0 5.65574,-2.87489 5.65574,-6.38752 v -34.97993 c 0,-3.51363 -2.54553,-6.38752 -5.65574,-6.38752"
       style="fill:#14b1b1;fill-opacity:1;fill-rule:nonzero;stroke:none;stroke-width:0.0943566"
       id="path165" />
    <path
       d="m 253.58339,445.33712 v 0 c -3.11021,0 -5.65574,2.87389 -5.65574,6.38752 v 34.97993 c 0,3.51263 2.54553,6.38752 5.65574,6.38752 3.1111,0 5.65574,-2.87489 5.65574,-6.38752 v -34.97993 c 0,-3.51363 -2.54464,-6.38752 -5.65574,-6.38752"
       style="fill:#14b1b1;fill-opacity:1;fill-rule:nonzero;stroke:none;stroke-width:0.0943566"
       id="path167" />
    <path
       d="m 73.796366,314.81715 c 0,0 0.187341,-7.05435 0.218417,-8.04207 -1.436578,-2.22108 -3.997201,-3.42138 -3.997201,-3.42138 0,0 -4.278656,2.2923 -6.058839,6.13684 0.06215,3.70415 0.31253,10.23006 0,11.63991 2.967267,-3.03331 9.837623,-6.3133 9.837623,-6.3133"
       style="fill:#f9ada9;fill-opacity:1;fill-rule:nonzero;stroke:none;stroke-width:0.0943566"
       id="path169" />
    <path
       d="m 74.355726,331.97419 c 0,0 5.311251,-8.80713 4.203186,-17.23726 -0.84259,-2.06969 -8.739326,-4.80519 -12.800453,0.95662 -2.168184,-1.07496 -3.237183,3.51965 -3.38013,4.78613 -0.14206,1.26748 1.955095,0.87238 2.564175,-0.17047 -1.035259,5.03981 -2.31202,8.80315 -0.910955,9.86305 1.401061,1.0599 9.415882,3.50262 10.324177,1.80193"
       style="fill:#f9ada9;fill-opacity:1;fill-rule:nonzero;stroke:none;stroke-width:0.0943566"
       id="path171" />
    <path
       d="m 73.588603,339.73951 c -1.088531,-1.01579 -3.576348,-2.70443 -3.875561,-2.80971 0.854133,0.81322 0.926937,2.57505 0.300989,2.59811 -0.625951,0.0231 -1.500505,-1.29455 -3.382794,-2.40659 -1.883177,-1.11105 -9.555283,0.0602 -8.731336,-4.54146 -1.768641,-0.69288 -3.295783,-3.1727 -1.949768,-6.96912 l -8.87e-4,-0.0124 c 0.241502,-2.84079 4.402072,-10.87785 6.097908,-12.14732 2.518004,-1.88417 5.187836,0.44522 6.006454,1.06191 0.819506,0.6177 1.35223,1.95135 0.623286,4.16142 -0.727166,2.20906 -1.182645,5.34466 0,5.39679 1.183534,0.0501 2.185053,-2.62219 2.185053,-2.62219 0,0 0,0 0.746701,0.30885 -0.436832,1.13109 -0.473235,2.6212 -0.06481,4.72897 0.410197,2.10578 0.285006,4.26569 0.285006,4.26569 l -0.190005,0.0822 c 1.33181,0.6909 2.509128,1.65254 3.08802,2.9872 1.805932,4.17044 -0.04884,6.93402 -1.138253,5.91723"
       style="fill:#2a3156;fill-opacity:1;fill-rule:nonzero;stroke:none;stroke-width:0.0943566"
       id="path173" />
    <path
       d="m 61.922851,167.46201 c 0,0 -3.714858,-2.18599 -5.030686,-2.79667 -1.314938,-0.61268 0.155378,-7.77913 1.006848,-8.12819 0.850583,-0.34897 1.641678,-1.66076 1.246573,-3.32122 -0.39599,-1.66045 0.84792,-11.61466 4.175664,-14.3683 3.327744,-2.75244 3.261155,0.22361 2.912221,3.63186 -0.348046,3.40855 -1.563543,14.80068 0.641931,17.94601 2.205476,3.14693 -4.952551,7.03651 -4.952551,7.03651"
       style="fill:#2a3156;fill-opacity:1;fill-rule:nonzero;stroke:none;stroke-width:0.0943566"
       id="path175" />
    <path
       d="m 69.351677,146.04937 c 0,0 -1.005071,-6.88799 -0.46347,-8.46031 0.541604,-1.57421 5.796918,-1.1692 7.316069,-0.80409 0.989089,0.23774 1.057455,1.39481 1.057455,1.39481 v 1.39794 c 0,0 3.503546,-1.29575 6.9476,1.61613 1.934668,2.40862 1.334478,6.80186 -2.306687,5.31068 -1.853883,-0.7579 -3.720189,-2.81473 -5.698368,0.0694 -1.358445,0.87418 -6.852599,-0.52455 -6.852599,-0.52455"
       style="fill:#2a3156;fill-opacity:1;fill-rule:nonzero;stroke:none;stroke-width:0.0943566"
       id="path177" />
    <path
       d="m 88.775659,244.02097 c 0,0 3.095128,-39.67781 2.63077,-45.62113 -0.464359,-5.94229 -13.354492,-29.25231 -25.010478,-40.5121 -2.940633,4.02004 -5.44088,9.00982 -5.44088,9.00982 0,0 14.046138,24.33563 16.831393,28.00671 2.786139,3.67005 -5.726776,33.909 -7.893185,42.47448 -2.166407,8.5645 18.88238,6.64222 18.88238,6.64222"
       style="fill:#353f6f;fill-opacity:1;fill-rule:nonzero;stroke:none;stroke-width:0.0943566"
       id="path179" />
    <path
       d="m 56.892165,238.60212 c 0,0 2.55441,-24.98553 4.062906,-37.74953 1.509382,-12.76602 6.849046,-52.88115 6.849046,-55.24032 3.946592,-2.09795 10.446704,0 10.446704,0 0,0 -3.785887,40.45074 -4.01851,47.64548 -0.231735,7.19573 1.971965,38.16166 1.971965,38.16166 l -1.203067,10.41758 -18.109044,-3.23487"
       style="fill:#353f6f;fill-opacity:1;fill-rule:nonzero;stroke:none;stroke-width:0.0943566"
       id="path181" />
    <path
       d="m 50.70192,301.52871 c 0,0 -7.100047,-26.51976 -7.585625,-31.59166 -0.485221,-5.06991 12.620749,-30.35626 12.620749,-30.35626 l 6.18847,8.1664 -9.411446,21.4358 4.378097,13.36264 -6.190245,18.98308"
       style="fill:#3a97c5;fill-opacity:1;fill-rule:nonzero;stroke:none;stroke-width:0.0943566"
       id="path183" />
    <path
       d="m 62.371226,308.79162 c 0,0 0.419076,2.76158 0.692542,3.11153 0.272576,0.34896 3.745932,2.55902 10.951015,0.33994 1.061894,-0.42216 1.608823,-3.45147 1.608823,-3.45147 h -13.25238"
       style="fill:#f5f6f6;fill-opacity:1;fill-rule:nonzero;stroke:none;stroke-width:0.0943566"
       id="path185" />
    <path
       d="m 50.70192,301.52871 c 0,0 9.440748,6.11778 11.646223,7.9528 2.205474,1.83603 10.253146,1.67961 12.364507,1.0228 2.647635,-0.82224 14.332917,-2.20203 14.797276,-2.20203 1.741128,-7.21078 1.161342,-15.47044 0,-19.1405 -1.160455,-3.67006 -3.674898,-22.94192 -2.901557,-27.31091 0.774215,-4.37099 5.262418,-17.30546 5.725882,-18.17886 -6.190252,-9.2644 -25.071736,-10.31328 -37.918361,-8.04104 0.619735,14.68326 3.09601,20.97552 3.404989,28.8411 0.309868,7.86657 -1.965748,12.48022 -3.269145,15.26687 -4.821145,10.31128 -3.849814,21.78977 -3.849814,21.78977"
       style="fill:#3a97c5;fill-opacity:1;fill-rule:nonzero;stroke:none;stroke-width:0.0943566"
       id="path187" />
    <path
       d="m 124.51874,322.05298 c 0,0 3.05782,1.97042 3.29311,3.20881 0.23617,1.2384 1.32382,4.39406 1.80505,5.11203 0.48123,0.71696 1.72159,2.25317 2.7453,3.02327 0.37468,0.2838 1.14624,-1.07694 -0.26548,-2.62217 -0.86478,-0.94659 -0.65435,-1.43896 -0.55669,-1.43295 0.0968,0.007 4.27775,5.12507 6.58002,6.41862 0.37291,0.28076 1.50228,-0.35197 0.37736,-1.58836 -1.33892,-1.47204 -3.1564,-3.51765 -3.1564,-3.51765 0.96956,-0.30183 1.41527,-1.35973 1.19685,-1.74077 0.99619,-0.34796 1.08321,-1.22236 0.871,-1.70268 0.79554,-0.28779 0.77246,-1.51815 0.4324,-2.16292 -0.30809,-0.5826 -1.1498,-2.60815 -5.17186,-3.58985 -2.03322,-0.0181 -4.7217,-3.00022 -4.7217,-3.00022 l -3.42896,3.59484"
       style="fill:#f9ada9;fill-opacity:1;fill-rule:nonzero;stroke:none;stroke-width:0.0943566"
       id="path189" />
    <path
       d="m 126.24565,324.22094 1.48986,1.53422 3.59053,-5.41787 -1.78106,-1.26246 -3.29933,5.14611"
       style="fill:#f5f6f6;fill-opacity:1;fill-rule:nonzero;stroke:none;stroke-width:0.0943566"
       id="path191" />
    <path
       d="m 89.44689,308.28823 c 0,0 17.48842,1.43796 20.0295,2.64426 2.54111,1.2063 17.05248,14.11371 17.05248,14.11371 0,0 3.58524,-5.05888 3.76014,-5.80292 -6.63062,-9.83096 -15.26163,-16.9946 -17.90039,-18.22298 -2.63786,-1.22737 -23.881997,-10.04656 -25.679045,-10.15684 1.250133,4.62667 2.795029,10.07763 2.737315,17.42477"
       style="fill:#3a97c5;fill-opacity:1;fill-rule:nonzero;stroke:none;stroke-width:0.0943566"
       id="path193" />
    <path
       d="m 173.7548,251.10039 c -0.39953,-57.51273 40.5589,-104.50342 91.48369,-104.95585 50.92479,-0.45125 92.53226,45.80663 92.9318,103.32036 0.39955,57.51475 -40.55888,104.50464 -91.48368,104.95586 -50.92392,0.45224 -92.53137,-45.80663 -92.93181,-103.32037"
       style="fill:#f8a33c;fill-opacity:1;fill-rule:nonzero;stroke:none;stroke-width:0.0943566"
       id="path195" />
    <path
       d="m 186.09534,250.99209 c -0.34628,-49.81663 35.13043,-90.51836 79.24082,-90.90932 44.1086,-0.39088 80.14733,39.6758 80.4936,89.49244 0.34627,49.81563 -35.13044,90.51725 -79.23992,90.90833 -44.10949,0.39107 -80.14824,-39.67581 -80.4945,-89.49145"
       style="fill:#e3f6f8;fill-opacity:1;fill-rule:nonzero;stroke:none;stroke-width:0.0943566"
       id="path197" />
    <path
       d="m 230.40549,210.21726 c -9.36883,9.5e-4 -18.22358,1.84106 -25.59026,5.30857 -0.50697,0.23966 -1.08231,0.1835 -1.62569,0.27073 -4.57433,10.59808 -7.11807,22.51475 -7.03016,35.10629 0.30098,43.32884 31.4946,78.21753 69.79207,78.21753 0.18557,0 0.3729,-9.5e-4 0.55936,-0.002 12.68414,-0.11335 24.5399,-4.05813 34.74422,-10.8267 5.59803,-18.24806 4.41627,-52.50902 -6.72297,-71.52016 -14.89228,-25.41771 -41.07208,-36.55526 -64.12657,-36.55426"
       style="fill:#f5fcfe;fill-opacity:1;fill-rule:nonzero;stroke:none;stroke-width:0.0943566"
       id="path199" />
    <path
       d="m 266.38562,311.08492 v 0 c 1.34247,-0.0116 2.44965,1.21933 2.46029,2.73549 l 0.1172,16.88431 c 0.0101,1.51515 -1.07876,2.76659 -2.42211,2.77762 -1.34247,0.0125 -2.44963,-1.21935 -2.4603,-2.7345 l -0.1172,-16.88432 c -0.0101,-1.51614 1.07966,-2.76658 2.42212,-2.7786"
       style="fill:#54c6c4;fill-opacity:1;fill-rule:nonzero;stroke:none;stroke-width:0.0943566"
       id="path201" />
    <path
       d="m 265.3841,167.08406 v 0 c 1.34246,-0.013 2.44965,1.21814 2.46029,2.7344 l 0.11809,16.88342 c 0.009,1.51705 -1.07965,2.76648 -2.42301,2.77951 -1.34246,0.0124 -2.44963,-1.21934 -2.4594,-2.7364 L 262.962,169.86158 c -0.0101,-1.51505 1.07964,-2.76538 2.4221,-2.77752"
       style="fill:#54c6c4;fill-opacity:1;fill-rule:nonzero;stroke:none;stroke-width:0.0943566"
       id="path203" />
    <path
       d="m 319.79912,249.80584 v 0 c -0.0101,-1.51716 1.07877,-2.76759 2.42212,-2.77862 l 14.94911,-0.13236 c 1.34335,-0.0124 2.45053,1.21834 2.46029,2.7345 0.01,1.51616 -1.07964,2.76658 -2.42211,2.77862 l -14.94912,0.13337 c -1.34246,0.0116 -2.44962,-1.21935 -2.46029,-2.73551"
       style="fill:#54c6c4;fill-opacity:1;fill-rule:nonzero;stroke:none;stroke-width:0.0943566"
       id="path205" />
    <path
       d="m 192.29446,250.93694 v 0 c -0.0101,-1.51716 1.07966,-2.76759 2.42123,-2.77962 l 14.94999,-0.13136 c 1.34246,-0.0125 2.44965,1.21735 2.4603,2.73449 0.0116,1.51617 -1.07877,2.76659 -2.42212,2.77862 l -14.94909,0.13237 c -1.34246,0.0125 -2.44966,-1.21834 -2.46031,-2.7345"
       style="fill:#54c6c4;fill-opacity:1;fill-rule:nonzero;stroke:none;stroke-width:0.0943566"
       id="path207" />
    <path
       d="m 297.0687,315.48097 c -0.68366,-1.3116 -0.29565,-3.00125 0.86657,-3.77335 1.16223,-0.77112 2.65918,-0.33392 3.34196,0.97968 0.68366,1.3126 0.29477,3.00224 -0.86746,3.77435 -1.16222,0.77112 -2.6583,0.33292 -3.34107,-0.98068"
       style="fill:#54c6c4;fill-opacity:1;fill-rule:nonzero;stroke:none;stroke-width:0.0943566"
       id="path209" />
    <path
       d="m 230.64789,187.879 c -0.68278,-1.3126 -0.29479,-3.00244 0.86744,-3.77445 1.16222,-0.77082 2.65829,-0.33291 3.34106,0.97969 0.68367,1.31369 0.29567,3.00233 -0.86656,3.77444 -1.16223,0.77112 -2.65828,0.33291 -3.34194,-0.97968"
       style="fill:#54c6c4;fill-opacity:1;fill-rule:nonzero;stroke:none;stroke-width:0.0943566"
       id="path211" />
    <path
       d="m 321.76488,289.18183 c -1.17199,-0.75106 -1.58397,-2.43367 -0.91896,-3.7583 0.66503,-1.32463 2.15488,-1.78991 3.32686,-1.03885 1.17288,0.75106 1.58486,2.43367 0.91985,3.7573 -0.66503,1.32565 -2.154,1.79091 -3.32775,1.03985"
       style="fill:#54c6c4;fill-opacity:1;fill-rule:nonzero;stroke:none;stroke-width:0.0943566"
       id="path213" />
    <path
       d="m 207.75232,216.18162 c -1.17288,-0.75106 -1.58485,-2.43367 -0.91984,-3.7583 0.66502,-1.32563 2.15487,-1.78892 3.32775,-1.03886 1.17199,0.75106 1.58396,2.43368 0.91894,3.75832 -0.66502,1.32463 -2.15485,1.7899 -3.32685,1.03884"
       style="fill:#54c6c4;fill-opacity:1;fill-rule:nonzero;stroke:none;stroke-width:0.0943566"
       id="path215" />
    <path
       d="m 323.69155,215.15281 c -1.16133,0.7721 -2.65828,0.33291 -3.34194,-0.97969 -0.68277,-1.31261 -0.29478,-3.00225 0.86745,-3.77435 1.1631,-0.77112 2.65829,-0.33291 3.34195,0.98068 0.68277,1.31159 0.29566,3.00224 -0.86746,3.77336"
       style="fill:#54c6c4;fill-opacity:1;fill-rule:nonzero;stroke:none;stroke-width:0.0943566"
       id="path217" />
    <path
       d="m 210.70716,290.16654 c -1.16134,0.77211 -2.65829,0.33291 -3.34107,-0.97969 -0.68366,-1.31261 -0.29477,-3.00223 0.86745,-3.77334 1.16224,-0.77213 2.65831,-0.33292 3.34195,0.97867 0.68278,1.31361 0.29477,3.00224 -0.86833,3.77436"
       style="fill:#54c6c4;fill-opacity:1;fill-rule:nonzero;stroke:none;stroke-width:0.0943566"
       id="path219" />
    <path
       d="m 300.40533,187.2605 c -0.66501,1.32442 -2.15486,1.78869 -3.32773,1.03866 -1.17378,-0.75106 -1.58576,-2.43349 -0.92074,-3.75822 0.66503,-1.32473 2.15487,-1.79011 3.32774,-1.03885 1.17378,0.75097 1.58576,2.43368 0.92073,3.75841"
       style="fill:#54c6c4;fill-opacity:1;fill-rule:nonzero;stroke:none;stroke-width:0.0943566"
       id="path221" />
    <path
       d="m 235.76823,316.02546 c -0.665,1.32363 -2.15575,1.78889 -3.32774,1.03785 -1.17376,-0.75006 -1.58485,-2.43368 -0.91983,-3.75731 0.66502,-1.32463 2.15397,-1.78991 3.32775,-1.03885 1.17286,0.75107 1.58396,2.43367 0.91982,3.75831"
       style="fill:#54c6c4;fill-opacity:1;fill-rule:nonzero;stroke:none;stroke-width:0.0943566"
       id="path223" />
    <path
       d="m 290.74617,271.013 c 7.30009,3.21683 41.37307,19.77124 41.37307,19.77124 l 0.12518,-0.26272 0.24774,-0.52144 0.12606,-0.26372 c 0,0 -31.0107,-22.98304 -37.41137,-28.08904 -6.40157,-5.106 -29.09559,-13.0929 -29.09559,-13.0929 l -0.41464,0.86837 -0.2477,0.52144 -0.41375,0.86837 c 0,0 18.41003,16.98358 25.711,20.2004"
       style="fill:#f8a33c;fill-opacity:1;fill-rule:nonzero;stroke:none;stroke-width:0.0943566"
       id="path225" />
    <path
       d="m 242.79574,244.68681 c -5.58737,0.97768 -32.10901,4.17844 -32.10901,4.17844 l -0.005,0.29883 -0.008,0.59163 -0.004,0.29881 c 0,0 26.42397,4.09924 31.98382,5.26645 5.55809,1.16721 22.34686,-3.65704 22.34686,-3.65704 l 0.0125,-0.9867 0.008,-0.59163 0.0133,-0.9857 c 0,0 -16.65204,-5.39178 -22.23941,-4.41309"
       style="fill:#f8a33c;fill-opacity:1;fill-rule:nonzero;stroke:none;stroke-width:0.0943566"
       id="path227" />
    <path
       d="m 261.08059,250.32626 c -0.0214,-3.04534 2.14776,-5.53317 4.84422,-5.55624 2.69647,-0.0251 4.8984,2.42466 4.92059,5.47001 0.0203,3.04535 -2.14776,5.53318 -4.84423,5.55724 -2.69736,0.0231 -4.89927,-2.42564 -4.92058,-5.47101"
       style="fill:#54c6c4;fill-opacity:1;fill-rule:nonzero;stroke:none;stroke-width:0.0943566"
       id="path229" />
    <path
       d="m 291.18478,189.0472 c 0,0 -19.04752,25.66339 -28.81057,22.25002 -9.76304,-3.41536 5.7472,-57.27086 5.7472,-57.27086 l 9.37415,0.87429 -2.91043,24.80272 c 0,0 3.0809,-20.41258 18.4846,-18.21355 15.4037,2.19893 18.03268,11.69889 17.30285,18.5579 -0.72893,6.8567 -19.1878,8.99948 -19.1878,8.99948"
       style="fill:#2a3156;fill-opacity:1;fill-rule:nonzero;stroke:none;stroke-width:0.0943566"
       id="path231" />
    <path
       d="m 310.37258,180.04772 c -0.72893,6.8567 -19.1878,8.99948 -19.1878,8.99948 0,0 -0.0675,0.0912 -0.18113,0.24066 l -11.29818,-22.06631 c 2.80924,-3.73445 7.0506,-6.6334 13.36426,-5.73173 15.4037,2.19893 18.03268,11.69889 17.30285,18.5579"
       style="fill:#353f6f;fill-opacity:1;fill-rule:nonzero;stroke:none;stroke-width:0.0943566"
       id="path233" />
    <path
       d="m 302.35066,160.34639 c 0,0 7.41196,1.45719 9.63165,1.92447 0.26547,0.0572 0.54337,-0.0553 0.70141,-0.30284 2.04122,-3.20287 1.53158,-8.06932 1.53158,-8.06932 l -1.26789,-0.4771 c 0,0 1.90538,-6.42071 1.07168,-10.99305 -0.37825,-2.0768 -2.41058,-6.20332 -9.10871,-5.64358 -1.16131,1.81077 0.214,3.24358 1.65234,5.13909 2.14244,2.82374 1.56266,9.71646 -2.12822,9.58128 -2.14332,2.01653 -2.08384,8.84105 -2.08384,8.84105"
       style="fill:#2a3156;fill-opacity:1;fill-rule:nonzero;stroke:none;stroke-width:0.0943566"
       id="path235" />
    <path
       d="m 311.98408,162.27167 c -0.4324,-0.0914 -1.06101,-0.21941 -1.79262,-0.36711 -0.18644,-0.26553 -0.30809,-0.61339 -0.32497,-1.07084 -0.0897,-2.42035 0.62508,-6.00046 1.16046,-8.06702 0.53627,-2.06859 0.35781,-10.08557 -0.93671,-12.65781 -1.29541,-2.57187 -3.97412,-2.4376 -5.38049,-2.95892 0.0568,-0.1202 0.12163,-0.24166 0.20063,-0.365 6.69813,-0.55974 8.73046,3.56678 9.10871,5.64358 0.8337,4.57234 -1.07168,10.99305 -1.07168,10.99305 l 1.26789,0.4771 c 0,0 0.50964,4.86645 -1.53158,8.06932 -0.15804,0.24758 -0.43417,0.36 -0.69964,0.30365"
       style="fill:#424889;fill-opacity:1;fill-rule:nonzero;stroke:none;stroke-width:0.0943566"
       id="path237" />
    <path
       d="m 311.55524,162.18273 c -0.20777,-0.2519 -0.36403,-0.59505 -0.36403,-1.09642 0,-1.64742 0.95268,-6.52178 1.36909,-6.8915 0.32763,-0.29109 0.93493,-0.39137 1.655,-0.2918 0.006,0.0469 0.49987,4.87819 -1.53158,8.06501 -0.15804,0.24758 -0.43417,0.36 -0.69964,0.30365 -0.12697,-0.0259 -0.27081,-0.0573 -0.42884,-0.089"
       style="fill:#5d66a1;fill-opacity:1;fill-rule:nonzero;stroke:none;stroke-width:0.0943566"
       id="path239" />
    <path
       d="m 313.00513,153.44275 c -0.52562,0.12419 -1.44191,0.33171 -1.44191,0.33171 0,0 0.69965,-3.04234 0.58067,-6.94205 -0.11897,-3.89978 -0.98998,-7.21588 -2.2108,-8.32482 -0.93405,-0.84913 -1.97907,-1.43393 -3.19545,-1.74658 5.2411,0.26642 6.94049,3.7952 7.28145,5.66754 0.8337,4.57234 -1.07168,10.99305 -1.07168,10.99305 l 0.0577,0.0213"
       style="fill:#5d66a1;fill-opacity:1;fill-rule:nonzero;stroke:none;stroke-width:0.0943566"
       id="path241" />
    <path
       d="m 278.18012,185.69411 c 0,0 -21.60903,-26.08645 -26.04485,-35.23063 -4.4367,-9.14428 4.04869,-17.48194 13.02244,-11.02634 8.97459,6.4536 13.12007,18.35423 23.29242,20.10203 5.83777,1.00385 16.37059,1.00897 17.11552,22.22806 0.58332,16.66169 -27.38553,3.92688 -27.38553,3.92688"
       style="fill:#353f6f;fill-opacity:1;fill-rule:nonzero;stroke:none;stroke-width:0.0943566"
       id="path243" />
    <path
       d="m 253.64022,139.08106 c 0,0 9.83496,-6.43564 29.30245,2.23814 16.61031,7.06046 22.69135,8.47134 22.69135,8.47134 l -2.75595,11.69928 c -6.71943,-2.82375 -33.17536,-0.0371 -49.23785,-22.40876"
       style="fill:#353f6f;fill-opacity:1;fill-rule:nonzero;stroke:none;stroke-width:0.0943566"
       id="path245" />
    <path
       d="m 284.95635,250.53585 c 0,0 0.39689,-6.91096 0.44838,-7.87861 1.58574,-2.01953 4.18632,-2.92202 4.18632,-2.92202 0,0 3.9901,2.68937 5.41335,6.63119 -0.36579,3.6109 -1.14802,9.95832 -0.95889,11.36818 -2.64852,-3.27298 -9.08916,-7.19874 -9.08916,-7.19874"
       style="fill:#f9ada9;fill-opacity:1;fill-rule:nonzero;stroke:none;stroke-width:0.0943566"
       id="path247" />
    <path
       d="m 282.99682,267.23464 c 0,0 -4.46244,-9.16011 -2.68581,-17.27939 0.99353,-1.93028 8.93199,-3.77435 12.42399,2.28025 2.20637,-0.82226 2.87228,3.77738 2.90689,5.02981 0.0354,1.25343 -1.98084,0.64676 -2.4896,-0.43622 0.59666,5.03081 1.53338,8.84226 0.0782,9.72971 -1.45612,0.88843 -9.48692,2.43165 -10.23362,0.67584"
       style="fill:#f9ada9;fill-opacity:1;fill-rule:nonzero;stroke:none;stroke-width:0.0943566"
       id="path249" />
    <path
       d="m 283.10603,274.89966 c 1.14802,-0.87739 3.71664,-2.2652 4.01763,-2.3374 -0.9012,0.70493 -1.11784,2.41763 -0.50876,2.50587 0.60997,0.0883 1.57331,-1.10604 3.50354,-1.99447 1.93024,-0.88844 9.32888,1.06292 8.9027,-3.51866 1.78463,-0.49034 3.47957,-2.75354 2.47717,-6.60311 l 0.002,-0.0116 c -0.002,-2.80068 -3.40322,-11.0874 -4.95521,-12.50529 -2.30493,-2.10578 -5.10349,-0.11033 -5.95495,0.40611 -0.8506,0.51641 -1.48098,1.76385 -0.95092,3.99897 0.52828,2.23412 0.71474,5.34566 -0.44483,5.27045 -1.15956,-0.0743 -1.9178,-2.78965 -1.9178,-2.78965 0,0 0,0 -0.75469,0.22361 0.33295,1.14915 0.24683,2.60916 -0.32675,4.62468 -0.57355,2.01552 -0.62948,4.13635 -0.62948,4.13635 l 0.17932,0.10127 c -1.35843,0.53547 -2.58724,1.3497 -3.26202,2.59412 -2.10782,3.88363 -0.52385,6.77659 0.62328,5.89817"
       style="fill:#2a3156;fill-opacity:1;fill-rule:nonzero;stroke:none;stroke-width:0.0943566"
       id="path251" />
    <path
       d="m 296.61145,245.85 c 0,0 -0.6366,2.65227 -0.93226,2.96612 -0.29566,0.31186 -3.86935,2.10578 -10.7246,-0.81924 -1.00331,-0.52244 -1.28654,-3.53971 -1.28654,-3.53971 l 12.9434,1.39283"
       style="fill:#f5f6f6;fill-opacity:1;fill-rule:nonzero;stroke:none;stroke-width:0.0943566"
       id="path253" />
    <path
       d="m 307.77378,245.19821 c 0,0 -8.89026,-0.23265 -11.19606,1.32764 -2.30581,1.56128 -10.15282,0.56354 -12.16208,-0.29883 -2.51711,-1.08195 -13.81884,-3.65802 -14.27165,-3.70716 -1.10629,-7.22481 0.14028,-15.23078 1.57597,-18.69427 1.4357,-3.4635 8.64433,-18.47267 8.24834,-22.8226 -0.39511,-4.34892 -6.3625,-18.36026 -6.74429,-19.26393 6.8091,-8.39804 26.73828,-6.97494 39.09835,-3.40625 0.26547,12.01595 -1.94978,15.90363 -1.94978,23.6288 0,8.01298 0.1465,13.72967 0,17.34658 -0.52562,12.98563 -2.5988,25.89002 -2.5988,25.89002"
       style="fill:#14b1b1;fill-opacity:1;fill-rule:nonzero;stroke:none;stroke-width:0.0943566"
       id="path255" />
    <path
       d="m 243.21394,245.61235 c 0,0 -1.77219,3.34817 -1.44368,4.53644 0.32762,1.18625 0.7458,4.47526 0.64104,5.35066 -0.10477,0.87541 -0.38091,3.7533 -0.92607,4.97064 -0.19887,0.44522 -1.56707,-1.18825 -1.02104,-3.27799 0.33385,-1.2785 -0.056,-1.58535 -0.13584,-1.52619 -0.08,0.0582 0.95269,1.0549 -0.4617,3.41437 -0.19976,0.4422 -1.7047,0.46226 -1.86453,-0.30284 -0.0496,-0.24165 -0.36223,0.0802 -0.36223,0.0802 -0.95713,0.26973 -1.78908,-0.39108 -1.76599,-0.83631 -0.99975,0.24568 -1.44812,-0.45424 -1.47033,-0.97868 -0.80352,0.18551 -1.30872,-0.8774 -1.29363,-1.61342 0.0133,-0.66582 -0.13229,-2.85582 2.88648,-5.88514 1.72868,-1.12308 2.75241,-5.13509 2.75241,-5.13509 l 4.46511,1.20331"
       style="fill:#f9ada9;fill-opacity:1;fill-rule:nonzero;stroke:none;stroke-width:0.0943566"
       id="path257" />
    <path
       d="m 243.21394,247.13952 -0.87012,1.99147 -5.3814,-2.67333 0.98199,-2.04862 5.26953,2.73048"
       style="fill:#f5f6f6;fill-opacity:1;fill-rule:nonzero;stroke:none;stroke-width:0.0943566"
       id="path259" />
    <path
       d="m 270.14399,242.51986 c 0,0 -14.83546,-16.72988 -16.49223,-14.31526 -1.655,2.41461 -10.16258,19.89957 -10.16258,19.89957 0,0 -6.33676,-2.91901 -6.80376,-3.45948 2.94683,-11.81742 8.02635,-28.31767 10.44847,-29.90402 8.05656,-5.27748 24.8844,6.00045 26.19489,7.97386 0.90652,4.63472 1.18975,15.55868 -3.18479,19.80533"
       style="fill:#14b1b1;fill-opacity:1;fill-rule:nonzero;stroke:none;stroke-width:0.0943566"
       id="path261" />
    <path
       d="m 312.64109,268.03784 c 0,0 -1.34335,3.59286 -2.38481,3.99697 -1.04148,0.40309 -3.63584,1.9664 -4.19964,2.57907 -0.56291,0.61469 -2.45496,2.56804 -3.0019,3.78438 -0.19976,0.44422 1.77485,0.72399 2.94419,-1.00775 0.71562,-1.06193 1.16489,-0.88745 1.17109,-0.78015 0.006,0.10836 -1.3176,-0.24367 -2.1664,2.43969 -0.19711,0.44323 0.67835,1.82601 1.31937,1.51917 0.20155,-0.0972 0.15627,0.37802 0.15627,0.37802 0.3738,1.02984 1.33803,1.39683 1.64257,1.11307 0.41554,1.05589 1.17998,1.04988 1.56888,0.76007 0.34094,0.84131 1.40016,0.67386 1.91602,0.22362 0.46701,-0.40611 2.11757,-1.5683 2.49492,-6.10776 -0.22108,-2.23912 2.03944,-5.54419 2.03944,-5.54419 l -3.5,-3.35421"
       style="fill:#f9ada9;fill-opacity:1;fill-rule:nonzero;stroke:none;stroke-width:0.0943566"
       id="path263" />
    <path
       d="m 311.83491,269.187 -1.1498,1.81798 5.09106,3.3201 0.98821,-1.89519 -4.92947,-3.24289"
       style="fill:#f5f6f6;fill-opacity:1;fill-rule:nonzero;stroke:none;stroke-width:0.0943566"
       id="path265" />
    <path
       d="m 306.96405,245.19821 13.30565,5.85405 -9.08649,18.31123 5.79692,3.86258 c 0,0 12.54564,-16.07007 13.73804,-25.88097 -0.94202,-8.80214 -18.58493,-18.53584 -19.38403,-19.29192 -0.7973,-0.75608 -1.19685,-2.06768 -1.48895,-4.28575 -1.18443,2.82373 -2.88114,21.43078 -2.88114,21.43078"
       style="fill:#14b1b1;fill-opacity:1;fill-rule:nonzero;stroke:none;stroke-width:0.0943566"
       id="path267" />
  </g>
</svg>
